<svg xmlns="http://www.w3.org/2000/svg"><style>:root svg:not(:target){display:none}</style><svg viewBox="0 0 10 10" fill="none" id="arrow-slider"><path fill-rule="evenodd" clip-rule="evenodd" d="M7.18.98a.5.5 0 0 0-.7 0l-3.68 3.67a.5.5 0 0 0 0 .7l3.67 3.68a.5.5 0 0 0 .71-.7l-3.32-3.33 3.32-3.32a.5.5 0 0 0 0-.7Z" fill="#1F1F1F"></path></svg><svg viewBox="0 0 62 30" fill="none" id="logo-image-icon"><g clip-path="url(#logo-image-icon_0)" fill-rule="evenodd" clip-rule="evenodd"><path d="M7.02 30h15.6a7.06 7.06 0 0 0 7.02-7.1v-15.77c0-3.93-3.14-7.1-7.02-7.1h-15.6a7.06 7.06 0 0 0-7.02 7.09v15.78c0 3.92 3.14 7.1 7.02 7.1Zm0-1.78h15.6a5.3 5.3 0 0 0 5.26-5.32v-9.54l-5 9.39a1.2 1.2 0 0 1-2.13-.05l-5.95-12.47-6.17 12.49c-.43.87-1.65.9-2.1.04l-4.77-8.8v8.94a5.29 5.29 0 0 0 5.26 5.32Zm20.86-21.1a5.29 5.29 0 0 0-5.26-5.31h-15.6a5.29 5.29 0 0 0-5.26 5.32v2.17l5.77 10.67 6.23-12.61c.44-.9 1.7-.89 2.13.02l5.99 12.54 6-11.26v-1.53Z" fill="#68A54B"></path><path d="M32.01 7.1c0-3.92 3.15-7.1 7.03-7.1h15.6a7.06 7.06 0 0 1 7.02 7.1v15.77c0 3.93-3.15 7.1-7.03 7.1h-15.6a7.06 7.06 0 0 1-7.02-7.1v-15.77Zm22.62-5.32h-15.6a5.29 5.29 0 0 0-5.25 5.32v2.02l1.22-.62a7.13 7.13 0 0 1 8.3 1.36 4.95 4.95 0 0 0 7.06 0 7.13 7.13 0 0 1 8.3-1.36l1.23.62v-2.02a5.29 5.29 0 0 0-5.26-5.32Zm-20.85 21.1a5.29 5.29 0 0 0 5.26 5.31h15.6c2.9 0 5.25-2.38 5.25-5.32v-3.76l-2.12-1.07a5.1 5.1 0 0 0-5.92.97c-2.9 2.93-7.44 2.75-10.37.02a5.37 5.37 0 0 0-6.27-.78l-1.43.8v3.82Zm23.9-12.39a4.95 4.95 0 0 0-5.76.95 7.14 7.14 0 0 1-10.17 0 4.95 4.95 0 0 0-5.76-.95l-2.21 1.12v4.9l.37-.21a7.56 7.56 0 0 1 8.83 1.09c2.07 1.93 5.24 2.13 7.3.04a7.28 7.28 0 0 1 8.48-1.39l1.13.57v-5l-2.21-1.12Z" fill="#30A3CF"></path></g><defs><clipPath id="logo-image-icon_0"><path fill="#fff" d="M0 0h62v30h-62z"></path></clipPath></defs></svg><svg viewBox="0 0 99 22" fill="none" id="logo-text-icon"><path d="m49.96 17.04 2.39-.54c.1.33.2.62.36.87.3.44.7.87 1.46.87 1.51 0 1.82-1.37 1.82-3.05v-1.62c-.11.11-.81 1.25-2.56 1.25-1.92 0-4.04-1.16-4.04-4.86.01-4.14 2.74-4.96 4.04-4.96 1.79 0 2.45 1.04 2.72 1.3l.16-1.19 2.27.14-.04 8.04c0 .85.02 1.72-.04 2.58-.1 2.82-1.3 4.67-4.37 4.67a4.07 4.07 0 0 1-4.17-3.49Zm4.23-9.72c-1.18 0-2.06.96-2.06 2.45 0 1.99.9 2.93 1.96 2.93 1.56 0 1.83-1.33 1.92-1.33v-3.03c-.1 0-.54-1.02-1.82-1.02Zm-12.41 7.54c-.06-3.4-.08-6.73-.1-10.14h2.7c0 .9 0 1.79.02 2.7 0-.06.54-1.72 1.88-2.28a4.49 4.49 0 0 1 1.69-.37 5 5 0 0 1 1.22.18l.5.17c-.09.9-.15 1.72-.25 2.62a2.7 2.7 0 0 0-.54-.23 3.6 3.6 0 0 0-1.24-.23c-2.78 0-3.24 2.93-3.24 2.87 0 .22 0 .41.02.62l.04 4.1h-2.7Zm-5.62-10.34c2.25 0 4.83 1.78 4.83 5.56 0 3.49-2.27 5.2-4.93 5.2-2.8 0-4.99-1.63-4.99-5.41 0-3.96 2.84-5.35 5.09-5.35Zm-.14 2.24c-1.53.06-2.19 1.52-2.19 3.28 0 1.87.74 3.2 2.23 3.2 1.52 0 2.18-1.47 2.18-3.12 0-2.26-.9-3.36-2.22-3.36Zm-14.63 7.62-.08-13.35 2.69-.11.02 5.72a3.13 3.13 0 0 1 2.9-1.7c2.38 0 3.68 2.07 3.68 4.96 0 3.05-2 5-5.1 5-2.59 0-4.08-.5-4.1-.52Zm2.64-5.77c-.02.02.04.99.04 1.95.02.56.02 1.21.02 1.93 0-.02.39.17 1.22.17 2.31 0 2.56-2.1 2.56-2.78 0-1.7-.7-2.6-1.92-2.6-1.41 0-1.9 1.35-1.92 1.33Zm-7.87 6.13c0 .02-.65.12-1.33 0-1.38-.23-2.43-.96-2.72-2.64-.3-2.31-.58-4.55-.9-6.86h2.74c.24 1.83.41 3.58.66 5.42.16 1.15.27 1.8.82 2.06.21.1.5.12.75.12.14 0 .3-.02.47-.04l1.69-7.56 2.48.34c-1.3 6.18-2.13 9.07-2.54 11.07-.62 2.47-1.77 4.11-4.1 4.11-.6 0-1.7-.19-2.15-.54l.76-2.14c.04.04.54.3.87.3 1.94.05 2.04-2.2 2.5-3.63Zm-16.16-13.82 2.95-.37 3.42 9.18 3.33-8.83 2.95.11-5.52 13.74h-1.66l-5.47-13.83Zm94.08 14.16c0 .02-.7.12-1.41 0-1.46-.25-2.56-1.02-2.87-2.8-.3-2.43-.61-4.8-.94-7.24h2.89c.24 1.94.43 3.79.7 5.72.16 1.22.28 1.91.85 2.18.23.1.54.12.8.12.15 0 .31-.02.5-.04l1.78-7.98 2.62.37c-1.37 6.51-2.26 9.56-2.69 11.68-.65 2.6-1.86 4.33-4.32 4.33-.63 0-1.8-.2-2.27-.57l.8-2.25c.04.04.57.3.92.3 2.05.06 2.15-2.32 2.64-3.82Zm-13.91-7.66a66.2 66.2 0 0 1-.9-2.05c.32-.22.7-.4 1.08-.6a6.7 6.7 0 0 1 2.72-.58c3.59 0 4.18 2.5 4.18 4.7 0 .87-.06 1.59-.06 2.4 0 1.47.37 1.71 1.2 1.71h.23l.15 1.81c-.23.1-.76.25-1.4.25-.83 0-1.84-.27-2.33-1.25a3.76 3.76 0 0 1-3.28 1.63c-1.39 0-3.48-.6-3.48-3.05 0-3.26 3.79-3.68 6.27-3.93-.06-.95-.08-1.95-1.74-1.95-1.37 0-2.48.85-2.64.91Zm4.34 4.01c0-.55.08-1.3.08-1.42-2.4.39-3.52.9-3.52 2.2 0 .44.34 1.12 1.43 1.12 1.31 0 2-1.16 2-1.2l-.01-.43.02-.27Zm-18.21-11.01 6.52.2c2.62.23 3.69 1.4 3.69 3.43 0 1.52-.68 2.3-1.33 2.7-.4.25-.84.39-1.33.45v.16c1.18 0 3.93.7 3.93 3.8 0 2.27-1.6 3.94-5.14 3.94-.66 0-2.24.04-3.65.04-.84.02-1.72.02-2.68.02v-14.74Zm5.25 2.26-2.27-.06v3.56l1.92-.02c.82-.06 2.4-.08 2.4-1.7 0-1.06-.82-1.72-2.05-1.78Zm.47 6.1-2.74-.01v3.7c0-.02 2.66.04 2.99.04 1.2 0 2.17-.67 2.17-1.9 0-1.84-1.93-1.82-2.42-1.82Z" fill="#1F1F1F"></path></svg></svg>