<svg xmlns="http://www.w3.org/2000/svg" fill="none" viewBox="0 0 201 136"><path fill="#68A54B" d="m4.66 107.72 7.5 19.06h2.29l7.55-18.93-4.04-.16-4.58 12.18-4.68-12.66-4.04.5Zm22.14 19.06c-.63 1.97-.77 5.08-3.43 5-.45 0-1.14-.34-1.2-.4l-1.03 2.95c.61.48 2.13.75 2.95.75 3.2 0 4.76-2.26 5.61-5.67.56-2.76 1.7-6.75 3.49-15.26l-3.4-.48-2.32 10.43c-.24.02-.45.05-.64.05-.34 0-.74-.03-1.03-.16-.75-.35-.9-1.25-1.12-2.85-.35-2.52-.59-4.94-.9-7.47h-3.76c.43 3.2.83 6.28 1.23 9.47.4 2.31 1.83 3.32 3.72 3.64.93.16 1.84.03 1.84 0Zm7.16-.5c.03.02 2.08.71 5.61.71 4.26 0 7-2.68 7-6.88 0-4-1.78-6.84-5.06-6.84a4.27 4.27 0 0 0-3.96 2.34l-.02-7.9-3.67.17.1 18.4Zm3.62-7.96c.03.03.69-1.83 2.63-1.83 1.68 0 2.63 1.25 2.63 3.59 0 .93-.34 3.83-3.5 3.83-1.15 0-1.68-.27-1.68-.24 0-.98 0-1.89-.03-2.66 0-1.33-.08-2.66-.05-2.69Zm16.61-5.63c-3.08 0-6.96 1.91-6.96 7.36 0 5.22 3 7.48 6.83 7.48 3.64 0 6.76-2.37 6.76-7.18 0-5.21-3.54-7.66-6.62-7.66Zm-.18 3.08c1.8 0 3.03 1.52 3.03 4.63 0 2.29-.9 4.3-2.98 4.3-2.05 0-3.06-1.83-3.06-4.4 0-2.43.9-4.45 3-4.53Zm7.88 11.17h3.7l-.06-5.64c-.03-.29-.03-.55-.03-.85 0 .08.64-3.96 4.44-3.96.62 0 1.25.13 1.7.32.27.08.51.19.75.32.13-1.25.21-2.37.35-3.62a23.11 23.11 0 0 0-.7-.24 6.83 6.83 0 0 0-1.67-.24c-.82 0-1.6.22-2.31.5-1.84.78-2.58 3.07-2.58 3.15-.03-1.25-.03-2.48-.03-3.73h-3.7c.03 4.71.06 9.31.14 14Zm11.2 3a5.59 5.59 0 0 0 5.72 4.82c4.2 0 5.85-2.55 5.98-6.44.08-1.2.05-2.39.05-3.56l.06-11.09-3.11-.18-.22 1.64c-.37-.37-1.27-1.8-3.72-1.8-1.78 0-5.53 1.14-5.53 6.86 0 5.1 2.9 6.7 5.53 6.7 2.4 0 3.35-1.57 3.51-1.73v2.23c0 2.32-.42 4.2-2.5 4.2-1.03 0-1.6-.58-2-1.2a4.92 4.92 0 0 1-.5-1.19l-3.27.75Zm5.8-13.4c1.75 0 2.36 1.41 2.5 1.41v4.18c-.14 0-.5 1.83-2.64 1.83-1.46 0-2.68-1.3-2.68-4.04 0-2.05 1.2-3.38 2.82-3.38Z"/><path fill="#30A3CF" d="M130.25 106.63v20.31c1.32 0 2.53 0 3.68-.02 1.93 0 4.1-.06 4.99-.06 4.85 0 7.04-2.3 7.04-5.42 0-4.29-3.76-5.24-5.38-5.24v-.23a4.41 4.41 0 0 0 1.82-.61c.9-.57 1.82-1.63 1.82-3.74 0-2.8-1.46-4.4-5.05-4.7l-8.92-.29Zm7.18 3.12c1.69.08 2.8.98 2.8 2.44 0 2.24-2.15 2.27-3.27 2.35l-2.64.03v-4.9l3.11.08Zm.65 8.41c.67 0 3.3-.03 3.3 2.53 0 1.68-1.31 2.6-2.96 2.6-.45 0-4.1-.08-4.1-.05v-5.1l3.76.02Zm11.15-1.88c.23-.08 1.74-1.26 3.62-1.26 2.28 0 2.3 1.37 2.39 2.7-3.4.33-8.59.92-8.59 5.4 0 3.37 2.86 4.22 4.77 4.22a5.14 5.14 0 0 0 4.5-2.25c.66 1.35 2.04 1.71 3.19 1.71.87 0 1.6-.2 1.9-.33l-.19-2.5h-.3c-1.16 0-1.66-.34-1.66-2.36 0-1.12.08-2.1.08-3.3 0-3.04-.81-6.49-5.72-6.49a8.96 8.96 0 0 0-3.73.82c-.54.25-1.04.5-1.49.8.42 1 .81 1.92 1.23 2.84Zm5.95 5.53c0 .14-.03.25-.03.36 0 .26.03.4.03.6 0 .05-.95 1.65-2.75 1.65-1.48 0-1.96-.93-1.96-1.55 0-1.8 1.54-2.5 4.82-3.03 0 .17-.1 1.21-.1 1.97Zm13.12 5.02c-.68 2.08-.82 5.36-3.62 5.28-.48 0-1.2-.37-1.26-.43l-1.1 3.12c.65.5 2.25.78 3.12.78 3.36 0 5.02-2.38 5.92-5.97.58-2.92 1.8-7.13 3.67-16.1l-3.59-.51-2.44 11c-.25.02-.48.05-.67.05a2.8 2.8 0 0 1-1.1-.16c-.78-.37-.95-1.32-1.18-3-.36-2.67-.61-5.23-.95-7.89h-3.96c.45 3.37.87 6.62 1.3 9.99.41 2.44 1.93 3.5 3.92 3.84a5.5 5.5 0 0 0 1.94 0Z"/><path fill="#68A54B" fill-rule="evenodd" d="M23.24 97.12h50.67a22.82 22.82 0 0 0 22.82-22.82v-50.66a22.82 22.82 0 0 0-22.82-22.82h-50.67a22.82 22.82 0 0 0-22.81 22.82v50.66a22.82 22.82 0 0 0 22.81 22.82Zm0-5.73h50.67c9.43 0 17.08-7.65 17.08-17.09v-30.65l-16.26 30.17a3.87 3.87 0 0 1-6.89-.15l-19.32-40.07-20.05 40.13a3.87 3.87 0 0 1-6.85.12l-15.46-28.28v28.73c0 9.44 7.65 17.09 17.08 17.09Zm67.75-67.75c0-9.44-7.65-17.09-17.08-17.09h-50.67a17.09 17.09 0 0 0-17.08 17.09v7l18.72 34.25 20.23-40.5a3.87 3.87 0 0 1 6.95.05l19.43 40.3 19.5-36.19v-4.91Z" clip-rule="evenodd"/><path fill="#30A3CF" fill-rule="evenodd" d="M104.42 23.56a22.82 22.82 0 0 1 22.81-22.81h50.67a22.82 22.82 0 0 1 22.82 22.81v50.67a22.82 22.82 0 0 1-22.82 22.82h-50.67a22.82 22.82 0 0 1-22.81-22.82v-50.67Zm73.48-17.08h-50.67a17.09 17.09 0 0 0-17.08 17.08v6.48l3.98-2a23.37 23.37 0 0 1 26.98 4.39 16.2 16.2 0 0 0 22.91 0 23.37 23.37 0 0 1 26.98-4.38l3.98 1.99v-6.48c0-9.43-7.64-17.08-17.08-17.08Zm-67.75 67.75c0 9.44 7.65 17.08 17.08 17.08h50.67c9.43 0 17.08-7.65 17.08-17.08v-12.1l-6.88-3.45a16.68 16.68 0 0 0-19.25 3.13c-9.4 9.4-24.14 8.84-33.66.07a17.6 17.6 0 0 0-20.37-2.5l-4.67 2.56v12.29Zm77.64-39.77a16.2 16.2 0 0 0-18.7 3.03 23.37 23.37 0 0 1-33.05 0 16.2 16.2 0 0 0-18.7-3.03l-7.2 3.6v15.7l1.24-.66a24.77 24.77 0 0 1 28.66 3.51c6.73 6.2 17.02 6.85 23.74.13a23.84 23.84 0 0 1 27.52-4.46l3.68 1.84v-16.07l-7.19-3.6Z" clip-rule="evenodd"/></svg>