<svg viewBox="0 0 62 30" fill="none" xmlns="http://www.w3.org/2000/svg"><g clip-path="url(#a)" fill-rule="evenodd" clip-rule="evenodd"><path d="M7.02 30h15.6a7.06 7.06 0 0 0 7.02-7.1v-15.77c0-3.93-3.14-7.1-7.02-7.1h-15.6a7.06 7.06 0 0 0-7.02 7.09v15.78c0 3.92 3.14 7.1 7.02 7.1Zm0-1.78h15.6a5.3 5.3 0 0 0 5.26-5.32v-9.54l-5 9.39a1.2 1.2 0 0 1-2.13-.05l-5.95-12.47-6.17 12.49c-.43.87-1.65.9-2.1.04l-4.77-8.8v8.94a5.29 5.29 0 0 0 5.26 5.32Zm20.86-21.1a5.29 5.29 0 0 0-5.26-5.31h-15.6a5.29 5.29 0 0 0-5.26 5.32v2.17l5.77 10.67 6.23-12.61c.44-.9 1.7-.89 2.13.02l5.99 12.54 6-11.26v-1.53Z" fill="#68A54B"/><path d="M32.01 7.1c0-3.92 3.15-7.1 7.03-7.1h15.6a7.06 7.06 0 0 1 7.02 7.1v15.77c0 3.93-3.15 7.1-7.03 7.1h-15.6a7.06 7.06 0 0 1-7.02-7.1v-15.77Zm22.62-5.32h-15.6a5.29 5.29 0 0 0-5.25 5.32v2.02l1.22-.62a7.13 7.13 0 0 1 8.3 1.36 4.95 4.95 0 0 0 7.06 0 7.13 7.13 0 0 1 8.3-1.36l1.23.62v-2.02a5.29 5.29 0 0 0-5.26-5.32Zm-20.85 21.1a5.29 5.29 0 0 0 5.26 5.31h15.6c2.9 0 5.25-2.38 5.25-5.32v-3.76l-2.12-1.07a5.1 5.1 0 0 0-5.92.97c-2.9 2.93-7.44 2.75-10.37.02a5.37 5.37 0 0 0-6.27-.78l-1.43.8v3.82Zm23.9-12.39a4.95 4.95 0 0 0-5.76.95 7.14 7.14 0 0 1-10.17 0 4.95 4.95 0 0 0-5.76-.95l-2.21 1.12v4.9l.37-.21a7.56 7.56 0 0 1 8.83 1.09c2.07 1.93 5.24 2.13 7.3.04a7.28 7.28 0 0 1 8.48-1.39l1.13.57v-5l-2.21-1.12Z" fill="#30A3CF"/></g><defs><clipPath id="a"><path fill="#fff" d="M0 0h62v30h-62z"/></clipPath></defs></svg>