<svg viewBox="0 0 300 96" fill="none" xmlns="http://www.w3.org/2000/svg"><path fill-rule="evenodd" clip-rule="evenodd" d="M22.5 6.24a16.27 16.27 0 0 0-16.26 16.27v50.12c0 8.98 7.28 16.26 16.27 16.26h50.12c8.98 0 16.26-7.28 16.26-16.26v-50.12c0-8.99-7.28-16.27-16.26-16.27h-50.12Zm50.13-6.24a22.5 22.5 0 0 1 22.5 22.5v50.13a22.5 22.5 0 0 1-22.5 22.5h-50.12a22.5 22.5 0 0 1-22.51-22.5v-50.12a22.5 22.5 0 0 1 22.5-22.51h50.13Z" fill="#76B358"/><path d="M49.09 26.48h8.05v26h5.14l.45 7.16h-5.26l-.1 7.88h-8.17l.05-7.88-19.23-.28c0-.62-.11-3.02-.11-4.25v-.45l19.18-28.18Zm.72 10.46-10.06 15.26 9.78.11.28-15.37Z" fill="#76B358"/><path fill-rule="evenodd" clip-rule="evenodd" d="M227.38 6.24a16.27 16.27 0 0 0-16.27 16.27v50.12c0 8.98 7.28 16.26 16.26 16.26h50.13c8.98 0 16.26-7.28 16.26-16.26v-50.12c0-8.99-7.28-16.27-16.26-16.27h-50.13Zm50.12-6.24a22.5 22.5 0 0 1 22.5 22.5v50.13a22.5 22.5 0 0 1-22.5 22.5h-50.13a22.5 22.5 0 0 1-22.5-22.5v-50.12a22.5 22.5 0 0 1 22.5-22.51h50.13Z" fill="#30A3CF"/><path d="M253.95 26.48h8.06v26h5.14l.45 7.16h-5.26l-.11 7.88h-8.16l.05-7.88-19.23-.28c0-.62-.11-3.02-.11-4.25v-.45l19.17-28.18Zm.73 10.46-10.06 15.26 9.78.11.28-15.37Z" fill="#30A3CF"/><path fill-rule="evenodd" clip-rule="evenodd" d="M124.94 6.24a16.27 16.27 0 0 0-16.27 16.27v50.12c0 8.98 7.28 16.26 16.27 16.26h50.12c8.98 0 16.26-7.28 16.26-16.26v-50.12c0-8.99-7.28-16.27-16.26-16.27h-50.12Zm50.12-6.24a22.5 22.5 0 0 1 22.5 22.5v50.13a22.5 22.5 0 0 1-22.5 22.5h-50.12a22.5 22.5 0 0 1-22.51-22.5v-50.12a22.5 22.5 0 0 1 22.5-22.51h50.13Z" fill="#CF5C30"/><path d="M150.31 25.25c9.23 0 17.06 6.93 17.06 21.64 0 13.92-7.44 20.8-17.11 20.8-8.61 0-17.72-5.82-17.72-21.47 0-12.97 7.99-20.97 17.78-20.97Zm.12 7.1c-6.38 0-9.12 7.66-9.12 14.32 0 6.7 2.52 14.14 9.17 14.14 5.99 0 8.78-6.2 8.78-13.8 0-9.46-3.63-14.66-8.83-14.66Z" fill="#CF5C30"/></svg>