<svg viewBox="0 0 29 29" fill="none" xmlns="http://www.w3.org/2000/svg"><path fill-rule="evenodd" clip-rule="evenodd" d="M.63 7.2a6.68 6.68 0 0 1 6.67-6.68h14.83a6.68 6.68 0 0 1 6.67 6.67v14.83a6.68 6.68 0 0 1-6.67 6.67h-14.83a6.68 6.68 0 0 1-6.67-6.67v-14.83Zm21.5-5h-14.83a5 5 0 0 0-5 5v1.89l1.17-.58a6.84 6.84 0 0 1 7.9 1.28 4.74 4.74 0 0 0 6.7 0 6.84 6.84 0 0 1 7.89-1.28l1.17.58v-1.9a5 5 0 0 0-5-5Zm-19.82 19.82a5 5 0 0 0 5 5h14.82a5 5 0 0 0 5-5v-3.54l-2.02-1.01a4.88 4.88 0 0 0-5.63.91c-2.75 2.76-7.06 2.6-9.85.03a5.15 5.15 0 0 0-5.96-.74l-1.36.75v3.6Zm22.71-11.64a4.74 4.74 0 0 0-5.47.89 6.84 6.84 0 0 1-9.67 0 4.74 4.74 0 0 0-5.47-.89l-2.1 1.05v4.6l.36-.2a7.25 7.25 0 0 1 8.38 1.03c1.97 1.82 4.98 2 6.95.04a6.98 6.98 0 0 1 8.05-1.3l1.08.53v-4.7l-2.1-1.05Z" fill="#FBF7F7"/></svg>