<svg width="242" height="178" viewBox="0 0 242 178" fill="none" xmlns="http://www.w3.org/2000/svg"><path d="m60.17 19.46 29.17-7.81 1.52-.4a24.65 24.65 0 0 1 30.2 17.42l.4 1.52 7.82 29.17 2.4 8.97 2.7 10.1 2.71 10.1.41 1.52a24.65 24.65 0 0 1-17.43 30.2l-1.52.4-14.58 3.9-14.59 3.92-14.58 3.9-7.3 1.96-7.29 1.95-1.52.41a24.65 24.65 0 0 1-30.19-17.43l-.4-1.52-2.71-10.1-2.71-10.1L12.46 59.4l-.4-1.52a24.65 24.65 0 0 1 17.42-30.2l1.53-.4 29.16-7.82Z" stroke="#68A54B" stroke-width="7.94" stroke-linecap="round"/><path d="M49.52 72.9C37.94 76 32.4 59.12 29.55 48.5l14.22-3.82 2.85 10.63 12.77-3.43-2.85-10.62 16.87-4.52 2.85 10.62 12.77-3.42-2.85-10.62 14.22-3.81c2.84 10.62 6.49 28.02-5.1 31.12M49.53 72.9l11.26 42.01M49.52 72.9l45.79-12.27m-34.53 54.28C56.2 117.1 47.71 123.95 50.4 134m10.38-19.09 45.78-12.27m-11.25-42 11.25 42m0 0c5.06-.4 15.85 1.3 18.54 11.34" stroke="#68A54B" stroke-width="7.94" stroke-linecap="round" stroke-linejoin="round"/><path fill-rule="evenodd" clip-rule="evenodd" d="m152.43 37.46 1.53.4L212.3 53.5l1.53.4a28.61 28.61 0 0 1 20.23 35.05l-16.45 61.4a28.61 28.61 0 0 1-35.04 20.23l-61.4-16.45a28.61 28.61 0 0 1-20.23-35.04l16.45-61.4a28.61 28.61 0 0 1 35.04-20.23Zm20.74 13.77-3.67-.98a62.6 62.6 0 0 0-7.64 6.8c-7.49 7.8-16.5 20.78-22.01 41.34-5.52 20.6-4.23 35.43-1.72 44.95.84 3.19 1.82 5.8 2.75 7.85l4.46 1.2c2.01-1.43 4.42-3.38 7-5.94 7.22-7.18 15.92-19.32 21.2-39.03 5.7-21.28 4.7-36.97 2.4-47.2a58.03 58.03 0 0 0-2.77-9Zm28.66 42.85-.18.12-.15-.44a11.22 11.22 0 0 1 2.83-11.9l.24-.22c.3-.28.78-.17.92.2 1.67 4.44.17 9.45-3.66 12.24Zm-78.6 52.38 8.2 2.2a62.84 62.84 0 0 1-.97-3.3c-2.88-10.91-4.14-27.14 1.72-49.02 5.88-21.91 15.58-36.07 23.96-44.79a74.7 74.7 0 0 1 3.95-3.83l-8.18-2.19-1.53-.4a20.68 20.68 0 0 0-25.32 14.61l-16.45 61.4a20.68 20.68 0 0 0 14.61 25.32Zm28.55-26.86a13.76 13.76 0 0 0 16.86-9.73l1.88-7.02a13.76 13.76 0 1 0-26.58-7.13l-1.88 7.03a13.76 13.76 0 0 0 9.72 16.85Zm9.2-11.78a5.83 5.83 0 0 1-11.26-3.01l1.88-7.03a5.83 5.83 0 0 1 11.26 3.01l-1.89 7.03Zm50.8-46.25-1.54-.4-27.8-7.46a71.4 71.4 0 0 1 1.24 4.77c2.59 11.5 3.55 28.5-2.48 51-5.65 21.1-15.09 34.46-23.27 42.6a68.3 68.3 0 0 1-3.06 2.86l24.39 6.54 16.28-60.79-1.52-4.27a19.16 19.16 0 0 1 4.84-20.3l.24-.23a8.5 8.5 0 0 1 13.82 3.16c2.93 7.78.3 16.56-6.43 21.44l-3.32 2.42-16.21 60.49a20.68 20.68 0 0 0 22.98-15.1l16.46-61.4a20.68 20.68 0 0 0-14.62-25.33Z" fill="#30A3CF"/><path d="M123.22 146.46a20.68 20.68 0 0 1-14.61-25.32l16.45-61.4a20.68 20.68 0 0 1 25.32-14.62l1.53.41 8.18 2.2a74.7 74.7 0 0 0-3.95 3.82c-8.38 8.72-18.08 22.88-23.95 44.8-5.87 21.87-4.61 38.1-1.73 49 .3 1.17.63 2.27.96 3.3l-8.2-2.19ZM210.24 61.16l1.54.41A20.68 20.68 0 0 1 226.4 86.9l-16.46 61.4a20.68 20.68 0 0 1-22.98 15.1l16.2-60.48 3.33-2.42a18.47 18.47 0 0 0 6.43-21.44 8.5 8.5 0 0 0-13.82-3.16l-.24.22a19.16 19.16 0 0 0-4.84 20.31l1.52 4.27-16.28 60.79-24.4-6.54c1-.87 2.03-1.82 3.07-2.87 8.18-8.13 17.62-21.5 23.27-42.6 6.03-22.5 5.07-39.49 2.48-51a71.4 71.4 0 0 0-1.25-4.76l27.81 7.45Z" fill="#FBF7F7"/><path fill-rule="evenodd" clip-rule="evenodd" d="M173.17 51.23c.93 2.3 1.94 5.3 2.77 9 2.3 10.22 3.3 25.9-2.4 47.2-5.28 19.7-13.98 31.84-21.2 39.02a56.28 56.28 0 0 1-7 5.94l-4.46-1.2a50.37 50.37 0 0 1-2.75-7.85c-2.51-9.52-3.8-24.35 1.72-44.95 5.51-20.56 14.52-33.54 22.01-41.34a62.6 62.6 0 0 1 7.64-6.8l3.67.98Zm-4.53 58.64a13.76 13.76 0 1 1-26.58-7.12l1.88-7.03a13.76 13.76 0 1 1 26.58 7.13l-1.88 7.02Z" fill="#FBF7F7"/><path d="M160.97 107.82a5.83 5.83 0 0 1-11.25-3.01l1.88-7.03a5.83 5.83 0 0 1 11.26 3.01l-1.89 7.03Z" fill="#FBF7F7"/></svg>