<svg xmlns="http://www.w3.org/2000/svg" viewBox="0 0 106 106" fill="none"><rect width="106" height="106" rx="25.04" fill="#861619"/><path d="M77.06 68.05a81.4 81.4 0 0 1-12.19-39.53 3.69 3.69 0 0 0-3.67-3.52h-16.17a3.66 3.66 0 0 0-3.67 3.83 76.85 76.85 0 0 0 23.2 51.33 3.68 3.68 0 0 0 5.16 0 76.19 76.19 0 0 0 7.1-7.97 3.65 3.65 0 0 0 .24-4.14Zm15.94-43.05h-19.77a3.66 3.66 0 0 0-3.67 3.83 76.78 76.78 0 0 0 8.36 31.33 3.63 3.63 0 0 0 6.72-.55c.08-.08.08-.16.16-.24a74.87 74.87 0 0 0 8.2-34.37Zm-44.14 43.05a81.4 81.4 0 0 1-12.19-39.53 3.69 3.69 0 0 0-3.67-3.52h-20a75.93 75.93 0 0 0 10.62 38.98c.16.24.32.47.4.7.07.16.23.32.3.48l.71 1.17c.08.08.16.23.24.31.93 1.48 1.95 2.89 2.96 4.3a76.1 76.1 0 0 0 8.13 9.3c.16.15.39.3.55.38 1.4.86 3.28.7 4.53-.46a76.17 76.17 0 0 0 7.1-7.97 3.52 3.52 0 0 0 .32-4.14Z" fill="#fff"/></svg>