<svg viewBox="0 0 38 38" fill="none" xmlns="http://www.w3.org/2000/svg"><path d="M28 1h-18a9 9 0 0 0-9 9v18a9 9 0 0 0 9 9h18a9 9 0 0 0 9-9v-18a9 9 0 0 0-9-9Z" stroke="#68A54B" stroke-width="2" stroke-linecap="round"/><rect x="7.348" y="16.735" width="5.521" height="5.521" rx="1.38" stroke="#68A54B" stroke-width="2"/><rect x="7.348" y="25.568" width="5.521" height="5.521" rx="1.38" stroke="#68A54B" stroke-width="2"/><rect x="16.184" y="16.735" width="5.383" height="5.521" rx="1.38" stroke="#68A54B" stroke-width="2"/><rect x="10.219" y="7.901" width="17.562" height="5.521" rx="1.38" stroke="#68A54B" stroke-width="2"/><rect x="16.184" y="25.568" width="5.383" height="5.521" rx="1.38" stroke="#68A54B" stroke-width="2"/><rect x="24.879" y="16.735" width="5.521" height="5.521" rx="1.38" stroke="#68A54B" stroke-width="2"/><rect x="24.879" y="25.568" width="5.521" height="5.521" rx="1.38" stroke="#68A54B" stroke-width="2"/></svg>