<svg viewBox="0 0 36 36" fill="none" xmlns="http://www.w3.org/2000/svg"><path fill-rule="evenodd" clip-rule="evenodd" d="M27.47 33.63c3.4 0 6.16-2.76 6.16-6.16v-6.7a1.2 1.2 0 0 0-.9-1.16l-1.38-.35a7.77 7.77 0 0 1-5.6-5.61l-.17-.64a4.15 4.15 0 0 0-2.68-2.91l-.64-.22a8.24 8.24 0 0 1-5.14-5.14 3.5 3.5 0 0 0-3.32-2.37h-5.27a6.16 6.16 0 0 0-6.16 6.16v18.94c0 3.4 2.76 6.16 6.16 6.16h18.94Zm0 2.37h-18.94a8.53 8.53 0 0 1-8.53-8.53v-18.94a8.53 8.53 0 0 1 8.53-8.53h5.27c2.51 0 4.75 1.6 5.56 3.98a5.87 5.87 0 0 0 3.66 3.66l.64.22a6.52 6.52 0 0 1 4.21 4.56l.17.65a5.4 5.4 0 0 0 3.9 3.9l1.38.35a3.56 3.56 0 0 1 2.68 3.45v6.7a8.53 8.53 0 0 1-8.53 8.53Z" fill="#CF5C30"/><path d="M21.86 2.48a1.58 1.58 0 1 1 3.15 0 1.58 1.58 0 0 1-3.15 0Zm8.8 8.54c0-1.14.93-2.07 2.07-2.07h.33c1.14 0 2.07.93 2.07 2.07v.33c0 1.14-.93 2.07-2.07 2.07h-.33a2.07 2.07 0 0 1-2.07-2.07v-.33Zm1.12-9a1.24 1.24 0 1 1 2.48 0 1.24 1.24 0 1 1-2.48 0Zm-5.48 3.68a1.65 1.65 0 0 1 3.3 0 1.65 1.65 0 1 1-3.3 0Zm-19.88 23a2.48 2.48 0 0 1 4.95 0 2.48 2.48 0 1 1-4.95 0Zm2.48-18.85a2.77 2.77 0 1 1 5.53 0 2.77 2.77 0 0 1-5.53 0Zm14.05 18.85a2.06 2.06 0 0 1 4.12 0 2.06 2.06 0 1 1-4.12 0Zm-8.52-9.86a2 2 0 0 1 3.98 0 2 2 0 1 1-3.98 0Zm-9.38 1.06a1.8 1.8 0 0 1 3.62 0c0 1-.82 1.81-1.82 1.81s-1.8-.8-1.8-1.8Z" fill="#CF5C30"/></svg>