<svg xmlns="http://www.w3.org/2000/svg" viewBox="0 0 106 106" fill="none"><path d="M0 0h106v106h-106v-106Z" fill="#FF6900"/><mask id="a" style="mask-type:alpha" maskUnits="userSpaceOnUse" x="0" y="0" width="106" height="106"><path d="M0 0h106v106h-106v-106Z" fill="#FF6900"/></mask><g mask="url(#a)"><path d="M26.21 55.6c0-10.62-3.4-20.32-2.3-26.38l-.24-.35c-3.87 4.04-6.4 2.94-6.64 1.67-.57-2.6 3.99-5.77 6.59-6.93l.17-.51c-2.43.34-5.26.05-5.37-1.68-.12-2.08 3.98-3.87 9.41-3.46.12-.06.23-.18.29-.23-.35-.12-.7-.3-1.16-.52-1.38-.7-1.73-1.91-1.27-2.78.52-.92 2.02-1.32 3.3-1.27 1.96.06 3.58.52 4.79.99l.4-.18a3.64 3.64 0 0 1-1.04-1.1c-.34-.57-.4-1.38.23-1.84.75-.58 2.66-.81 4.4.75l.92.92c.17-.06.4-.06.57-.11a3.72 3.72 0 0 1-.57-1.33c-.12-.58.11-1.21.75-1.44.75-.24 1.67.11 2.19.86.52.81.87 1.73 1.04 2.43-3.81.46-13.92 2.77-13.92 15 0 11.96 9.94 24.49 9.94 42.97 0 6.7-1.5 13.45-7.57 21.3-4.68 6.07-12.18 11.9-23.84 16.69a15.2 15.2 0 0 0 6.7 1.5h4.2c9.65-5.31 14.44-10.22 17.73-14.84a44.97 44.97 0 0 0 18.3 4.1c10.52 0 19.47-4.85 24.14-13.45 4.8-2.89 7.97-8.84 8.2-13.05 3-3.75 3.52-8.49 2.6-11.72-.23-.75-.87-.81-1.9-.12-9.47 5.66-18.66 8.37-27.37 8.37-5.32 0-10.74-.86-16.52-2.54-.4-6.17-1.67-11.43-2.13-14.55-.7-4.15.28-7.21 4.85-7.21 3.35 0 9.52.86 14.49 3.11 4.9 2.26 7.85 6.64 9.87 6.64.81 0 1.68-.52 1.68-2.25 0-3.58-1.27-9.3-2.83-11.31 4.62-.3 8.25-.24 10.28 0 4.27.75 4.5 2.88 5.3 4.27.87 1.38 2.26 2.02 4 2.02 3.17 0 5.13-1.62 5.13-7.57 0-12.99-8.2-19.28-16.8-19.28-7.05 0-9.82 1.56-16.52 1.56-4.73 0-8.71-9.7-14.14-10.97-2.37-5.31-7.74-5.9-11.03-3.24-3-1.84-7.68-.86-7.85 2.55-3.47-1.04-7.91.8-6 5.3-8.5.18-10.11 7.63-4.4 8.5-7.39 4.15-3.98 11.37 2.2 9.81.46 5.14 2.48 13.4 2.48 19.05 0 7.92-3.58 9.76-8.49 9.76-3.87 0-9.58-1.38-13.45-2.54v5.55c3.93.98 9.76 2.19 14.2 2.19 7.74.11 12.01-4.45 12.01-13.1Zm17.1 17.96a60.14 60.14 0 0 0 18.7 1.85 50.3 50.3 0 0 0 23.27-7.62c-2.71 6.87-12.93 11.14-22.8 12.35-.06.52-.12.98-.24 1.45 7.4-.4 14.44-2.83 17.61-5.03-1.84 6.76-10.9 9.47-19.1 9.88-.24.52-.47 1.03-.76 1.5 4.8.05 9.36-.81 12.13-1.68-2.49 4.68-10.97 8.43-19.58 8.43-4.27 0-9.52-.8-14.14-3a40 40 0 0 0 4.9-18.13Zm21.42-38.05c1.15-3.47 2.19-6.12 4.04-8.08 2.02-2.08 4.21-2.78 9.06-2.78 6.7 0 12.3 6.76 12.3 16.29 0 1.38-1.9 1.38-2.48.11-2.31-4.04-5.37-4.62-10.22-4.96-3.58-.23-7.91.11-11.9.29-.69 0-.92-.52-.8-.87Z" fill="#000"/><path d="M0 83.43c4.04-.8 8.03-1.56 8.03-1.56l.52-2.2c-1.85-.1-5.49-.05-8.55.07v3.7Z" fill="#000"/><path d="M43.71 18.19c1.44-.47 3.47.92 4.56 3.11 1.1 2.2.81 4.4-.58 4.85-1.38.52-3.4-.92-4.5-3.11a2.72 2.72 0 0 1-.35-.87l.24-.06c.46.4.98.58 1.38.29.52-.35.46-1.21 0-1.96-.29-.64-.98-1.27-1.56-1.22l-.17-.11c.23-.46.52-.8.98-.92Zm9.93 22c-6.35-1.4-13.28-3.24-16.97-8.67-.06-.11-.18-.17-.3-.11-.1.06-.17.11-.22.29 0 .29 0 .63.11.92l-.52.17c-.98-1.38-1.15-3.06-.23-4.27 1.39-1.73 4.22-1.56 5.9-.46l-.18.52c-.93-.17-1.8-.17-2.43.23-.57.35-.63.87-.29 1.5 3.06 5.72 12.01 6.93 22.64 6.12 1.1-.06 1.33-.58 1.5-1.1.92-3.7 2.6-6.98 5.08-9.47-1.96.3-3.75.35-5.31.4-5.49.36-8.6-.34-9.59-1.15l.18-.46c.57.18 1.21.23 1.33.06.17-.23.05-.4-.24-.64-1.04-.98-5.71-5.77-5.71-5.77-.52-4.04-6.41-4.21-8.78-.23l-.8-.23a7.4 7.4 0 0 1 .92-2.14c-4.91 1.1-7.74 5.55-8.26 9.82-2.2 18.36 25.7 14.14 33.66 21.48.18.11.52.63.81.29.23-.81-3.29-5.08-12.3-7.1Zm31.7 27.54a50.05 50.05 0 0 1-23.27 7.62 60.5 60.5 0 0 1-18.77-1.85 44.47 44.47 0 0 1-.57 5.43c3 .75 8.31 1.79 15.99 2.02-.35 2.08-2.42 9.06-7.8 13.63 9.76.4 18.66-3.41 21.25-8.38a41.28 41.28 0 0 1-12.12 1.68c.23-.46.52-.98.75-1.5 8.2-.4 17.32-3.12 19.11-9.88-3.17 2.2-10.22 4.62-17.61 5.03.12-.47.17-.99.23-1.45 9.87-1.21 20.1-5.48 22.8-12.35Z" fill="#fff"/></g></svg>